# xmcd
#
# Track frame offsets:
#	150
#	19333
#	36523
#	55530
#	71394
#	86404
#	104292
#	120981
#	134510
#	148862
#
# Disc length: 2290 seconds
#
# Revision: 1
# Processed by: cddbd v1.5.2PL0 Copyright (c) Steve Scherf et al.
# Submitted via: audiograbber 1.83.01
#
DISCID=8708f00a
DTITLE=Duffy - Rockferry
DYEAR=2009
DGENRE=
TTITLE0=Duffy - Rockferry
TTITLE1=Duffy - Warwick Avenue
TTITLE2=Duffy - Serious
TTITLE3=Duffy - Sleeping Stone
TTITLE4=Duffy - Syrup and Honey
TTITLE5=Duffy - Hanging On Too Long
TTITLE6=Duffy - Mercy
TTITLE7=Duffy - Delayed Devotion
TTITLE8=Duffy - Scared
TTITLE9=Duffy - Distant Dreamer
EXTD=
EXTT0=
EXTT1=
EXTT2=
EXTT3=
EXTT4=
EXTT5=
EXTT6=
EXTT7=
EXTT8=
EXTT9=
PLAYORDER=
